<?xml version="1.0" encoding="utf-8"?>
<svg version="1.1" id="Layer_1" xmlns="http://www.w3.org/2000/svg" xmlns:xlink="http://www.w3.org/1999/xlink" x="0px" y="0px"
	 viewBox="0 0 252 227" style="enable-background:new 0 0 252 227;" xml:space="preserve">
<style type="text/css">
	.heart{fill:#f03;}
</style>
<path class="heart" d="M251,72.1c1.3,29.3-11.5,52.3-31.8,72c-14.2,13.7-30.4,24.9-45.9,37c-15.9,12.4-31,25.8-44.8,40.5
	c-0.8,0.8-1.4,1.7-2.1,2.6c-0.5,0.6-0.9,1.3-1.3,1.9c-0.5-0.7-1-1.3-1.4-2c-6.3-11.2-16.1-19.1-25.7-27.2
	c-16.5-13.9-34.5-25.9-51-39.9c-13.4-11.4-26.3-23.4-35-39c-9.5-17-11.5-35.4-11.3-54.5C1,39.1,21.3,9.3,51.5,2.8
	c31.1-6.6,53.6,3.4,70.1,30.8c1.9,3.2,2.5,7,3.4,10.6c0.1,0.2,0.1,0.4,0.2,0.6c0.1-0.2,0.2-0.4,0.3-0.6c4.5-10.6,9.8-20.5,18.7-28.2
	c30.9-26.4,79.9-16.5,99.6,20.2C249.9,47.4,250.6,59.8,251,72.1z"/>
</svg>
