<?xml version="1.0" encoding="utf-8"?>
<svg version="1.1" id="Layer_1" xmlns="http://www.w3.org/2000/svg" xmlns:xlink="http://www.w3.org/1999/xlink" x="0px" y="0px"
	 viewBox="0 0 450 273" style="enable-background:new 0 0 450 273;" xml:space="preserve">
<style type="text/css">
	.sweet-nothings{fill:#FFFFFF;}
</style>
<path class="sweet-nothings" d="M407.4,191.5c2.5-0.4,4.8-0.7,7-0.7c-4.6,6.4-10.7,11.3-18.5,12.7c-2.7,0.5-4.3-0.4-4.5-2
	C390.9,198.7,395.3,193.6,407.4,191.5 M397.4,183.5c19-17.5,27.3-28.3,30.7-33.4c-0.9,6.7-3.9,26-12.9,39.5c-2.3,0.1-4.9,0.2-8,0.8
	c-13.1,2.2-18.6,8.2-17.9,12.1c0.5,2.8,3.9,4.5,9.9,3.5c5.3-0.9,11.5-4,15.1-6.3c4.7-3,8.2-6.3,10.8-9.8c6-1.2,12.9-4.8,24.9-16.2
	l-0.8-1c-11,10.2-17.6,14.1-23,15.6c12.5-19-1.2-41.3,9.6-45.7l-5.4-1.3c0,0-1.3,4.6-2.6,6.9c-2.9,4.8-10.9,15.3-31.6,34.6
	L397.4,183.5z M379.1,174.2c-8.8,8.9-35.2,35-45.8,36.8c-1,0.2-1.6-0.3-1.8-1c-1.1-6.3,26.3-40.6,46.2-44l6.2-1
	c0.7-0.1,0.9,0.1,0.9,0.4c0,0.3-0.1,0.4-0.1,0.4L379.1,174.2z M285.7,262.7c-1.5-8.9,24.8-33.8,61.4-42.6
	c-18,24.4-34.8,42.3-52.9,45.4C288.8,266.4,286.1,265.3,285.7,262.7 M395.4,161.2c-3.6,1.2-6.3,1.8-9,2.2c-3,0.5-5.4,0.8-7.6,1.1
	c-38.4,6.5-53.4,33.5-51.6,44c0.5,3,2.2,4.7,5.3,4.2c10.5-1.8,32.6-23,43.1-33.6c-9.7,13.9-18.6,27.4-27.5,39.4
	c-38.3,8.9-65.8,35.1-64.1,45c0.5,3.1,3.9,4.5,10.7,3.4c21.5-3.6,43-25.3,60.9-48.5c6.8-1,14.6-0.1,21.4,0.9c0.4-0.1,1.1-4.8,1-4.9
	c0-0.1-14.3,1.6-21.3,2.6l2.7-3.6c0.4,0.1,1,0,1.6-0.1c7.3-1.2,20.9-15.1,37.5-30.6l-0.8-1c-17,15.9-29.9,28.8-35.1,29.6
	c-0.6,0.1-1.1,0-1.5-0.2c15.3-20.5,27.6-41,34.5-49.4L395.4,161.2z M293,180.4c-0.3-1.5-1.2-2.7-3.1-2.4
	c-4.8,0.8-14.9,11.2-25.2,21.2l-7.6,7.2l1.1,0.7l7-6.7c6.6-6.3,18.9-18.8,20.8-19.1c0.6-0.1,0.9,0.1,1,0.6c1,6-27.2,39.4-35.1,47.6
	l0.6,0.8c0,0,6.3-1.8,12.7-2.9c4.3-6.1,8-11.5,11.1-16.2c12.6-12.8,33.3-33.1,40.2-34.3c0.4-0.1,0.7,0,0.8,0.3
	c0.7,3.9-28.8,31.6-27.2,41c0.7,4.4,3.4,6.4,6.3,5.9c7.3-1.2,20.7-15.1,37.4-30.6l-0.8-1c-17,15.9-29.9,28.8-35.1,29.6
	c-1.4,0.2-2.2-0.3-2.5-1.9c-0.9-5.3,28-28.9,25.7-42.4c-0.4-2.4-2-3-4.1-2.6c-6.7,1.1-24.7,18.2-37.2,30.7
	C290.2,190.2,293.5,183.4,293,180.4 M236.2,226c-3.1,2.8-8.2,6.9-11.5,7.4c-1.5,0.3-2.8-0.3-3.1-2.2c-0.8-4.9,24-37.6,31.9-45.7
	l-0.6-0.8c0,0-6.3,1.8-12.7,2.9c-22,31.5-24.3,40.1-23.7,43.5c0.7,3.9,3.2,5,6.1,4.5c4.9-0.8,11.2-5.7,14.2-8.3
	c6.4-5.7,14-13.2,22.6-21.2l-0.8-1C250,213.1,242.1,220.6,236.2,226 M253.7,177.3c1.9-1.5,16.5-13.6,16.5-13.6l-0.4-0.9
	c0,0-7.3,0.6-10.8,1.2c-0.6,0.1-2,0.3-2.6,1.6c-1.1,2.9-3.5,11.6-3.5,11.6L253.7,177.3z M197.9,176.9c15.1-21.7,32-41.9,42.5-43.6
	c1-0.2,1.5,0.3,1.7,1.4c1.2,7.2-13.4,37-42,41.8L197.9,176.9z M134.6,230.8c12.8-15.9,29.4-36.4,43.6-52.9c3.3,0.5,6.5,0.9,9.7,1.1
	c1.5,0.2,2.9,0.2,4.4,0.3c-11.2,14.9-22.4,30.8-32.6,44.4c-7.7,7.2-14.5,13.7-19.7,18.5c-2.4,2.1-7.8,6.1-11.2,6.7
	c-1.5,0.3-2.6-0.1-2.9-1.8C125.3,243.4,131.7,234.5,134.6,230.8 M241.3,131.1c-11.8,2-29.4,22.3-47.4,46.2c-1.9,0-3.9-0.1-6-0.3
	c-2.6-0.3-5.4-0.5-8.3-0.9c5.8-6.8,11.2-12.7,15.7-17.4l-0.6-0.8c0,0-7.6,2-13.9,3.1c-3,4.3-6.6,8.9-10.5,13.8
	c-14.4-2.2-29.8-4.4-46.3-1.6c-10.1,1.7-20.5,5.2-31.2,11.9l1.5,1.2c10.6-6.6,20.8-10.2,30.5-11.8c15.6-2.6,30.2-0.3,44.2,1.9
	c-11.6,14.3-25.9,30.7-39.2,49c-3.4,4.8-8.6,15.9-7.6,21.5c0.6,3.4,2.8,4.3,5.6,3.8c3.9-0.7,9.1-4.1,12.9-7.4
	c4.3-3.6,9-8.2,14.1-13.2c-5.2,7-10,12.8-14.3,17.5c-0.4,0.4-0.5,0.7-0.4,0.8c0.1,0.4,1.1,0.3,1.6,0.2c8.2-1.4,17.4-10,23.4-18.1
	c12-11.7,36.2-34.2,43.6-35.4c0.4-0.1,0.7,0,0.8,0.3c0.7,3.9-28.8,31.6-27.2,41c0.7,4.4,3.4,6.4,6.3,5.9
	c7.3-1.2,20.7-15.1,37.4-30.6l-0.8-1c-17,15.9-29.9,28.8-35.1,29.6c-1.4,0.2-2.2-0.3-2.5-1.9c-0.9-5.3,28-28.9,25.7-42.4
	c-0.4-2.4-2-3-4.1-2.6c-7.5,1.3-28.6,20.6-41.2,32.4c0.6-0.8,0.9-1.6,1.3-2.4c5.1-10.3,15.3-27.5,26.8-44.2c1.9,0,3.8-0.4,5.7-0.7
	c29.2-4.9,47.5-33,45.7-43.6C247.1,132,245.1,130.4,241.3,131.1 M84.7,257.6c-2.5,0.4-3.8-0.4-4.1-2.1c-1.5-9.1,27.3-45,36.7-46.6
	c2.1-0.4,3.1,0.5,3.4,2C122.2,220.2,98.3,255.3,84.7,257.6 M116.6,207.8c-24.3,4.1-43.5,32.9-41.4,45.5c0.7,4.2,3.9,6.6,10,5.5
	c6-1,14.4-8.4,21.7-17.3c0.8,0.2,1.6,0.2,2.6,0c5.6-1,13.4-7,15.9-9.3l4.6-4.4l-0.8-1l-4.9,4.6c-4.9,4.6-11.4,8-15,8.6l-1.4,0.2
	c8.6-10.9,15.3-23.5,14.3-29.3C121.9,208.5,120.1,207.3,116.6,207.8 M41.2,222.9c-0.3-1.5-1.2-2.7-3.1-2.4
	c-4.8,0.8-14.9,11.2-25.2,21.2l-7.6,7.2l1.1,0.7l7-6.7c6.6-6.3,18.9-18.8,20.8-19.1c0.6-0.1,0.9,0.1,1,0.6c1,6-27.2,39.4-35.1,47.6
	l0.6,0.8c0,0,6.3-1.8,12.7-2.9c4.3-6.1,8-11.5,11.1-16.2c12.6-12.8,33.3-33.1,40.2-34.3c0.4-0.1,0.7,0,0.8,0.3
	c0.7,3.9-28.8,31.6-27.2,41c0.7,4.4,3.4,6.4,6.3,5.9c7.3-1.2,20.7-15.1,37.4-30.6l-0.8-1c-17,15.9-29.9,28.8-35.1,29.6
	c-1.4,0.2-2.2-0.3-2.5-1.9c-0.9-5.3,28-28.9,25.7-42.4c-0.4-2.4-2-3-4.1-2.6c-6.7,1.1-24.7,18.2-37.2,30.7
	C38.4,232.8,41.7,226,41.2,222.9"/>
<path class="sweet-nothings" d="M311.4,8.4c-2.8,4.7-6,9.8-9.5,15c-14.5-1-30-2.1-46.3,2.1c-9.7,2.5-19.7,6.9-29.8,14.5l1.6,1.1
	c9.9-7.4,19.5-11.7,28.9-14.1c15.5-4,30.3-3,44.4-1.9c-10.2,15.2-23.1,32.6-34.6,51.9c-3,5-7.2,16.6-5.8,22.1
	c0.9,3.3,3.1,4.1,5.9,3.3c3.9-1,8.7-4.9,12.3-8.5c6.1-6.1,12.8-14.3,20.7-23l-0.8-1c-8,8.8-15.2,17-20.6,22.8
	c-2.2,2.3-7.2,6.7-10.6,7.6c-1.5,0.4-2.6,0.1-3.1-1.6c-0.9-3.6,4.6-13,7.3-16.9c11.4-16.9,26.1-38.7,38.8-56.3
	c9.1,0.5,17.9,0.2,26.3-1.9c10.5-2.7,20.4-8.7,29.7-20.8l-4-2.9c-8.4,13.1-18,19.2-28.5,21.9c-7,1.8-14.5,2.1-22.2,1.9
	c5.2-7.4,10.1-13.9,14.2-19L325,4.1C325,4.1,317.6,6.8,311.4,8.4 M256.2,63.4c0.9,3.6-10.5,17-24.6,23c7-11.1,16.1-22.1,21.9-23.6
	C255.2,62.3,256,62.6,256.2,63.4 M241.7,104.4c-3.1,3-8.6,6.5-13.1,7.6c-3.2,0.8-5.8,0.5-6.5-2.4c-0.9-3.5,3.1-12.6,8.7-21.8
	c17.7-7.5,27.9-20.4,26.7-24.9c-0.4-1.4-1.7-1.9-4.3-1.2c-26.8,6.9-40.6,36.6-37.8,47.7c1.4,5.2,6.2,6.2,11.6,4.8
	c5.2-1.4,11.2-5,15.5-8.9c6.7-6.1,14.6-15.8,23.9-26.1l-0.8-1C255.9,89.1,247.4,99,241.7,104.4 M211.2,75c0.9,3.6-10.5,17-24.6,23
	c7-11.1,16.1-22.1,21.9-23.6C210.2,74,211,74.2,211.2,75 M196.7,116c-3.1,3-8.6,6.5-13.1,7.6c-3.2,0.8-5.8,0.5-6.5-2.4
	c-0.9-3.5,3.1-12.6,8.7-21.8c17.7-7.5,27.9-20.4,26.7-24.9c-0.4-1.4-1.7-1.9-4.3-1.2c-26.8,6.9-40.6,36.6-37.8,47.7
	c1.4,5.2,6.2,6.2,11.6,4.8c5.2-1.4,11.2-5,15.5-8.9c6.7-6.1,14.6-15.8,23.9-26.1l-0.8-1C210.9,100.7,202.4,110.6,196.7,116
	 M176.4,102.5l-0.8-1l-4.5,5c-6.5,7.3-13,10.7-17.6,11.9c-1.5,0.4-2.7,0.5-3.7,0.5c8.9-11.3,17.1-24.3,21.5-30.4
	c2.5-3.6,8.4-8.6,8.4-8.6l-0.6-0.6c-1.7,1-12.2,4-14,4.5c0.2,4.1-3.8,12.6-9.2,21.5c-5.7,1.5-11.1,9.4-10.3,12.5
	c0.2,0.7,0.5,1.2,0.8,1.6c-6.5,9-13.2,16.2-16.8,17.1c-1.5,0.4-2.8,0-3.3-1.9c-1.2-4.8,20.7-39.5,27.9-48.3l-0.6-0.7
	c0,0-6.2,2.3-12.4,3.9c-10.2,17.6-15.4,28.3-17.9,35c-3.7,4-6.9,7.7-9.6,10.6c-2.9,3.1-7.6,7.6-10.8,8.4c-1.5,0.4-2.8,0-3.3-1.9
	c-1.2-4.8,20.7-39.5,27.9-48.3l-0.6-0.7c0,0-6.2,2.3-12.4,3.9c-19.3,33.2-20.8,42-20,45.4c1,3.9,3.6,4.7,6.5,3.9
	c4.8-1.2,10.7-6.6,13.5-9.5l7.7-8.5c-1.2,3.8-1.1,5.9-0.8,7.1c1,3.9,3.6,4.7,6.5,3.9c6.1-1.6,13.8-9.3,21-18.4
	c1.3,0.1,2.9,0,4.7-0.5c5.4-1.4,12.5-5.6,18.7-12.6L176.4,102.5z M40.3,149.7c-0.2-0.8-0.3-1.7-0.3-2.7c1.2,0.1,2.6-0.1,3.9-0.4
	c5.7-1.5,11.9-6.5,10.6-11.3c-0.1-0.4-0.4-0.9-0.8-1.3c7.2-7.9,16.2-19.4,24.8-35C78.3,108,76,149.4,51,155.8
	C48.2,156.5,41.8,155.7,40.3,149.7 M77.3,99.1c0,0-7.9,16.8-24.6,34c-1.2-0.7-3.1-1-5.4-0.4c-6.5,1.7-10.1,10.6-8.3,17.3
	c1.5,5.8,6.9,10.2,17.8,7.3c12.2-3.1,24.7-12.3,35.3-24.1l10.4-11.7l-0.8-1l-10.5,11.7c-11.4,12.8-22,18.2-22,18.2
	c29.4-23,4-52.4,16.6-58.8L80.2,91C80.2,91,78.6,96.8,77.3,99.1"/>
</svg>
